<?xml version="1.0" encoding="utf-8"?>
<!-- Generator: Adobe Illustrator 19.0.0, SVG Export Plug-In . SVG Version: 6.00 Build 0)  -->
<svg version="1.1" id="Layer_1" xmlns="http://www.w3.org/2000/svg" xmlns:xlink="http://www.w3.org/1999/xlink" x="0px" y="0px"
	 width="2000px" height="400px" viewBox="0 0 2000 400" style="enable-background:new 0 0 2000 400;" xml:space="preserve">
<style type="text/css">
	.st0{fill:#353560;}
	.st1{fill:#474787;}
	.st2{fill:#C2C2D7;}
	.st3{fill:#F9D70B;}
	.st4{fill:#FCE97B;}
</style>
<g id="XMLID_1_">
	<path id="XMLID_4_" class="st0" d="M244.3582916,101.7600555c7.8253632,15.9634781,11.7430573,33.7274017,11.7430573,53.2978058
		c0,19.5784149-3.9176941,37.2641449-11.7430573,53.0732422c-7.8353729,15.8070984-17.9203033,28.384201-30.2628326,37.715271
		c-24.997818,19.2736816-50.891861,28.9054871-77.6881256,28.9054871H79.9477081v51.0402222
		c0,6.9311523-0.2265549,12.1239929-0.6776733,15.58255c-0.4511185,3.4665527-1.8846588,7.4524231-4.2906113,11.969574
		c-4.2204361,8.130127-15.9654808,12.196167-35.2311249,12.196167c-21.0801315,0-33.4246597-5.5697632-37.0375938-16.7133179
		C0.9042362,343.7103882,0,335.8850403,0,325.3409729V74.6590347c0-6.9231262,0.2265603-12.1159668,0.6776759-15.5825386
		c0.4511155-3.4585533,1.8766408-7.4524307,4.2906108-11.9696007c4.2144222-8.1301041,15.9574623-12.1941566,35.2311249-12.1941566
		h96.6590271c26.4935303,0,52.2391968,9.6398392,77.2370148,28.9074898
		C226.4379883,73.1573181,236.5229187,85.8025894,244.3582916,101.7600555z M163.5083618,184.8695831
		c8.7295837-6.6203766,13.0983887-16.5569458,13.0983887-29.8117218c0-13.2467651-4.3688049-23.2615356-13.0983887-30.0362854
		c-8.7376099-6.7747498-17.7719574-10.1631317-27.1010284-10.1631317H79.9477081v79.9477081h56.9107361
		C145.8927917,194.8061523,154.770752,191.4959717,163.5083618,184.8695831z"/>
	<path id="XMLID_7_" class="st0" d="M285.4539185,201.6382141c0-3.9056396,0.2265625-6.835144,0.6776733-8.7907867
		c0.4511414-1.9511261,1.8766479-4.2042389,4.2906189-6.7525787c4.2144165-4.5865479,15.9574585-6.8792419,35.2311401-6.8792419
		c21.0740967,0,33.5730286,3.1455383,37.4887085,9.4275818c1.5037231,2.8910522,2.2595825,7.3056641,2.2595825,13.2506409
		V343.567749c0,4.0775757-0.2265625,7.051178-0.6776733,8.9186096c-0.4511108,1.8719482-1.8846741,4.0775452-4.2906189,6.6247559
		c-4.2204285,4.5865479-15.9654846,6.8803711-35.2311096,6.8803711c-21.0801392,0-33.4246826-3.2247009-37.0375977-9.683197
		c-1.806488-2.7145996-2.7107239-7.0466614-2.7107239-12.9950256V201.6382141z"/>
	<path id="XMLID_9_" class="st0" d="M608.3965454,279.269043l8.130127-5.8705139
		c10.2332764-6.0209045,17.4611816-9.0343628,21.6816406-9.0343628c9.3290405,0,19.4219971,8.4328613,30.2628174,25.2945557
		c6.6183472,10.5440674,9.9365845,18.9689026,9.9365845,25.2925415s-2.03302,11.5966797-6.0971069,15.8091125
		c-4.06604,4.2204285-8.8077393,7.98172-14.229187,11.2919312c-5.4193726,3.3182068-10.6142578,6.480011-15.5825195,9.4854431
		c-4.9682617,3.0134583-15.1314087,6.9311523-30.4874268,11.743042c-15.3579712,4.8139038-30.192627,7.2278748-44.4899902,7.2278748
		c-14.3053589,0-28.7591553-1.8846741-43.3612061-5.6459656c-14.6101685-3.7612915-29.6633911-10.0849304-45.1677246-18.9709167
		c-15.5123596-8.8779602-29.4367981-19.71875-41.7813416-32.5204163
		c-12.3505249-12.7956543-22.5116577-29.2042236-30.4873962-49.2337646
		c-7.98172-20.0214996-11.969574-41.7793121-11.969574-65.267395c0-23.486084,3.909668-44.7867584,11.7430115-63.9120636
		c7.8273621-19.1172714,17.8421326-34.9263687,30.0362854-47.4252777
		c12.196167-12.492897,26.1206055-22.9587784,41.7813416-31.3916283
		c29.506958-16.2602119,59.168335-24.3903198,88.9800415-24.3903198c14.151001,0,28.5265503,2.1874084,43.1346436,6.5481949
		c14.6021118,4.3688049,25.6674805,8.8077812,33.1981201,13.3249512l10.8408203,6.3236389
		c5.4193726,3.3162003,9.6337891,6.0269051,12.6472778,8.1301079c7.8273315,6.3236389,11.743042,13.479332,11.743042,21.4550552
		c0,7.9817429-3.1618042,16.3384094-9.4854736,25.0679932c-11.743042,16.2602081-22.2871094,24.3903198-31.6161499,24.3903198
		c-5.4214478,0-13.0984497-3.3101807-23.0369873-9.9365768c-12.6452637-10.2333069-29.5130005-15.3579788-50.5870972-15.3579788
		c-19.576416,0-38.8440552,6.7767563-57.8150024,20.3262634c-9.0323181,6.6263885-16.5629578,15.9634857-22.5838318,28.0032501
		c-6.0269165,12.0478058-9.0323486,25.6755066-9.0323486,40.8770905c0,15.2096252,3.0054321,28.837326,9.0323486,40.8770905
		c6.020874,12.0477905,13.697876,21.5332489,23.0349426,28.4563751
		c18.3634033,13.2527771,37.4907227,19.8731384,57.3638916,19.8731384c9.3290405,0,18.1368408-1.1989441,26.4233398-3.612915
		C598.8348999,284.0889587,604.7836304,281.6830139,608.3965454,279.269043z"/>
	<path id="XMLID_11_" class="st0" d="M748.4108276,34.4596176l83.5606079,0.4531212
		c43.65802,0,82.0489502,15.7369194,115.1768799,47.2007256c33.1218872,31.4678192,49.6848755,70.1635132,49.6848755,116.079071
		c0,45.9235687-16.1900635,85.296936-48.5540771,118.1141052c-32.3740845,32.8251648-71.5910645,49.2337341-117.6630249,49.2337341
		h-82.6563721c-18.37146,0-29.8117065-3.7612915-34.3269043-11.2919312
		c-3.6149292-6.3236389-5.4213867-15.9574585-5.4213867-28.9074707V74.2079163
		c0-7.2258682,0.2265625-12.4908905,0.6776733-15.8090973c0.4511108-3.3101845,1.8766479-7.2258682,4.2905884-11.7430382
		C717.394104,38.5256729,729.137146,34.4596176,748.4108276,34.4596176z M890.6886597,261.4289246
		c17.4611816-16.105835,26.1987915-36.3599243,26.1987915-60.7502441c0-24.3923187-8.5130615-44.7867584-25.5211182-61.2033539
		c-17.0140381-16.4085846-36.9674072-24.6168823-59.8460083-24.6168823h-43.3612061v170.7342377h43.8123169
		C853.651062,285.5926819,873.2214966,277.5407715,890.6886597,261.4289246z"/>
	<path id="XMLID_14_" class="st0" d="M1194.6724854,58.398819l121.9494629,252.0372772
		c5.1166992,10.2393494,7.6831055,17.918335,7.6831055,23.0349731c0,10.8408203-8.7416992,20.6290283-26.2008057,29.3586121
		c-10.241333,5.1166382-18.293335,7.6789856-24.1638184,7.6789856s-10.6904297-1.3553467-14.4516602-4.06604
		c-3.7694092-2.7087097-6.4801025-5.5677795-8.1322021-8.5812378c-1.6600342-3.0074463-3.9938965-7.5226135-7.0012207-13.5494995
		l-23.4901123-48.7826538h-125.109375l-23.4901123,48.7826538c-3.0155029,6.026886-5.3492432,10.3876953-7.0013428,13.0983887
		c-1.6601563,2.7087097-4.362793,5.4975891-8.1320801,8.3546448c-3.7613525,2.8590698-8.5812988,4.2926331-14.4517822,4.2926331
		s-13.9304199-2.5623474-24.1637573-7.6789856c-17.4671631-8.4268494-26.1967773-18.0666809-26.1967773-28.9075012
		c0-5.1166382,2.5543213-12.7956238,7.6790161-23.0349731l121.949585-252.4883881
		c3.3121338-6.9231224,8.3566895-12.4908905,15.1334229-16.7113266c6.7767334-4.2144241,13.9223633-6.3236389,21.4530029-6.3236389
		C1174.7993164,34.9127388,1186.8370361,42.7461128,1194.6724854,58.398819z M1158.0859375,166.8029022l-29.8096924,61.8790283
		h60.0684814L1158.0859375,166.8029022z"/>
	<path id="XMLID_19_" class="st0" d="M1470.1898193,319.4684448c-7.8354492-9.6338196-11.7451172-18.2932434-11.7451172-25.9702148
		c0-7.6789856,6.4720459-17.8421326,19.4240723-30.4894104c7.522583-7.2258759,15.5023193-10.8408051,23.9351807-10.8408051
		c8.428833,0,20.1739502,7.5306244,35.2310791,22.583847c4.2144775,5.1246643,10.2333984,10.0147705,18.0687256,14.6802979
		c7.8273926,4.6715698,15.0532227,7.0013123,21.6816406,7.0013123c28.0012207,0,42.0039063-11.4402771,42.0039063-34.3268738
		c0-6.9251404-3.8375244-12.717453-11.5164795-17.3910217c-7.6790771-4.6635284-17.2426758-8.0519104-28.6829834-10.1611176
		c-11.4443359-2.1032104-23.7907715-5.4915924-37.0355225-10.1631317
		c-13.2568359-4.6655426-25.5993652-10.163147-37.0396729-16.4867859
		c-11.4443359-6.3236389-20.9998779-16.3303833-28.6789551-30.0362701
		c-7.6789551-13.697876-11.5203857-30.1846466-11.5203857-49.458313c0-26.493515,9.8603516-49.6066742,29.585083-69.3334656
		c19.7208252-19.7187653,46.5952148-29.5851631,80.6234131-29.5851631c18.0687256,0,34.5534668,2.33778,49.4622803,7.0013123
		c14.9049072,4.6715546,25.2143555,9.4152832,30.9365234,14.2291908l11.2919922,8.5812187
		c9.3310547,8.7376099,14.0025635,16.1118469,14.0025635,22.1327362c0,6.0269012-3.612915,14.3053741-10.8387451,24.8414307
		c-10.241333,15.0612488-20.7794189,22.583847-31.6182861,22.583847c-6.3236084,0-14.1549072-3.007431-23.486084-9.0343399
		c-0.9022217-0.5994797-2.6384277-2.1031952-5.1967773-4.5151596c-2.5583496-2.407959-4.8961182-4.362793-6.9973145-5.8725281
		c-6.3236084-3.909668-14.3835449-5.8725204-24.1677246-5.8725204c-9.788208,0-17.9163818,2.3357773-24.3884277,7.0013123
		c-6.4799805,4.6715546-9.7119141,11.1435623-9.7119141,19.4220352c0,8.2864838,3.8374023,14.9830475,11.5164795,20.0997009
		c7.6789551,5.1246796,17.2346191,8.5812225,28.6828613,10.3896942c11.4403076,1.8064728,23.939209,4.5933685,37.4887695,8.35466
		c13.5494385,3.7693176,26.0404053,8.3566742,37.4886475,13.7760773
		c11.4403076,5.421402,21.0040283,14.8346863,28.6829834,28.2298126
		c7.6789551,13.4031372,11.5164795,29.8899078,11.5164795,49.458313c0,19.5783997-3.9177246,36.8130188-11.7451172,51.7178955
		c-7.8312988,14.9048462-18.0645752,26.4233398-30.7119141,34.5534363
		c-24.392334,15.963501-50.4406738,23.939209-78.1412354,23.939209c-14.1550293,0-27.552124-1.7362976-40.1994629-5.1948547
		c-12.6472168-3.4585571-22.8845215-7.7491455-30.7119141-12.8718262
		c-15.963501-9.6338196-27.1030273-18.9709167-33.4266357-28.005249L1470.1898193,319.4684448z"/>
	<path id="XMLID_21_" class="st0" d="M1977.8692627,41.2363777C1992.6177979,51.4757004,2000,61.4122734,2000,71.0460968
		c0,5.7241592-3.4645996,13.7058945-10.3857422,23.9392014l-97.5651855,145.8907776v86.271347
		c0,6.9311523-0.2246094,12.1239929-0.6737061,15.58255c-0.453125,3.4645691-1.8846436,7.4524231-4.2945557,11.9696045
		c-2.4100342,4.5171509-6.4760742,7.6789856-12.1942139,9.4854431c-5.722168,1.8064575-13.401123,2.7106934-23.032959,2.7106934
		c-9.6437988,0-17.322876-0.9042358-23.0369873-2.7106934c-5.722168-1.8064575-9.788208-5.0384521-12.1940918-9.7120056
		c-2.4140625-4.6635437-3.8415527-8.7295837-4.2906494-12.1941528c-0.453125-3.4585571-0.6777344-8.8078003-0.6777344-16.035675
		v-85.3671112l-97.5651855-145.8907776c-6.9291992-10.2333069-10.3857422-18.2150421-10.3857422-23.9392014
		c0-9.6338234,6.616333-18.8927231,19.8731689-27.778698c13.244751-8.8779526,22.7321777-13.3229465,28.4543457-13.3229465
		c5.7181396,0,10.2332764,1.2069855,13.5495605,3.612936c5.1165771,3.3162003,10.5379639,9.4854584,16.2601318,18.5177917
		l70.0131836,112.0170135l70.0091553-112.0170135c5.7141113-9.0323334,10.682373-14.9750328,14.9047852-17.8401184
		c4.2144775-2.8590679,9.1025391-4.2906094,14.6802979-4.2906094
		C1957.0136719,29.9444523,1965.8234863,33.7117691,1977.8692627,41.2363777z"/>
	<path id="XMLID_60_" class="st0" d="M1349.6912842,201.3213196c0-3.9056396,0.2265625-6.835144,0.6777344-8.7907867
		c0.4510498-1.9511261,1.8765869-4.2042389,4.2905273-6.7525787c4.2144775-4.5865479,15.9575195-6.8792419,35.2312012-6.8792419
		c21.0740967,0,33.572998,3.1455383,37.4886475,9.4275818c1.5037842,2.8910522,2.2596436,7.3056641,2.2596436,13.2506409
		v141.6739197c0,4.0775757-0.2265625,7.051178-0.6777344,8.9186096c-0.4510498,1.8719482-1.8846436,4.0775452-4.2905273,6.6247559
		c-4.220459,4.5865479-15.9655762,6.8803711-35.2312012,6.8803711c-21.0800781,0-33.4246826-3.2247009-37.0375977-9.683197
		c-1.8063965-2.7145996-2.7106934-7.0466614-2.7106934-12.9950256V201.3213196z"/>
	<g id="XMLID_2_">
		<g id="XMLID_3_">
			<g id="XMLID_39_">
				<path id="XMLID_29_" class="st1" d="M354.7311401,74.7562714c-5.4737244,2.1498871-10.3916321,4.7569046-14.5095825,7.5603714
					c3.6394348,2.6868668,6.6053162,6.3758698,8.3828735,10.8967514c1.7765503,4.5232086,2.1138611,9.2448273,1.272522,13.6913681
					c4.9261475-0.7506409,10.3057861-2.186409,15.7774658-4.337204
					c17.9213562-7.0369263,30.0023804-18.9702835,26.9861145-26.6499329
					C389.6242371,68.2379761,372.6504517,67.7184372,354.7311401,74.7562714"/>
				<path id="XMLID_28_" class="st1" d="M334.5304565,125.4935684c-4.5231934,1.7765503-9.244812,2.1138535-13.6913452,1.272522
					c0.7506409,4.9261398,2.1864014,10.3057785,4.3371887,15.7774582
					c7.0369263,17.9213867,18.9702759,30.0023956,26.6499329,26.9861145s8.1994629-19.9899597,1.161377-37.9093781
					c-2.147583-5.4727249-4.7569275-10.3916397-7.5593567-14.5119019
					C342.7426758,120.751152,339.0536804,123.7170181,334.5304565,125.4935684"/>
				<path id="XMLID_27_" class="st1" d="M302.2510681,111.4199448c-1.7765503-4.5232086-2.1138611-9.2448349-1.2758484-13.6900482
					c-4.922821,0.7493286-10.3027039,2.1849823-15.7741089,4.3358841
					c-17.9190674,7.0379486-30.0024109,18.9702835-26.986145,26.6499329
					c3.0162964,7.6796417,19.9899597,8.1994476,37.9093933,1.1613617c5.4727173-2.1475601,10.3916321-4.7569046,14.5095825-7.560379
					C306.9933777,119.6324158,304.0274963,115.9434128,302.2510681,111.4199448"/>
				<path id="XMLID_26_" class="st1" d="M316.3249207,79.1400299c4.5232239-1.7765503,9.2448425-2.1138535,13.6913757-1.272522
					c-0.7506409-4.9261475-2.1864319-10.3057785-4.3372192-15.7774506
					c-7.0369263-17.9213829-18.9702759-30.0024033-26.6499329-26.9861183
					c-7.6796265,3.0162849-8.1994324,19.9899521-1.1613464,37.9093742
					c2.1475525,5.4727249,4.756897,10.3916397,7.5593567,14.5119095
					C308.1126099,83.8827057,311.8017273,80.9165802,316.3249207,79.1400299"/>
			</g>
			<g id="XMLID_32_">
				<path id="XMLID_23_" class="st2" d="M340.2208862,82.3154221c3.7952881-2.5801086,8.2913208-4.9796371,13.2486572-7.0235672
					c0.1910706-0.4191971,0.3942871-0.816803,0.5794067-1.2413712c7.6956787-17.650898,7.8014526-34.6284485,0.23703-37.926487
					c-7.5620728-3.2970238-19.9330139,8.3357582-27.6266785,25.9820023
					c-0.1861267,0.4268951-0.3368225,0.8473854-0.5142212,1.2725563c1.8764648,5.0231171,3.1780701,9.9503784,3.8701172,14.4872437
					c-0.1960754-0.0365601-0.401123-0.0391769-0.5992432-0.0710831c4.024292,0.6572418,7.8304138,2.294838,11.0764465,4.7504883
					C340.3988953,82.4745789,340.3151855,82.3863831,340.2208862,82.3154221"/>
				<path id="XMLID_18_" class="st2" d="M365.6366272,103.5491333c-0.4245605-0.1851044-0.8473816-0.3368301-1.2702332-0.5131912
					c-5.0254211,1.8754501-9.9526978,3.1770401-14.4884033,3.8671188c0.0365601-0.1960754,0.0403442-0.39814,0.0723877-0.5958786
					c-0.6595459,4.0232849-2.2962646,7.8273239-4.7518005,11.0731125c0.0731812-0.0930328,0.1603699-0.1744232,0.2290039-0.2697296
					c2.5834351,3.7939911,4.9806519,8.2890015,7.0265503,13.2475128c0.4169617,0.1898041,0.8158875,0.396347,1.240448,0.5814514
					c17.6485901,7.6946716,34.6284485,7.8014526,37.9264832,0.2370453
					C394.9191284,123.6121597,383.2852173,111.2438126,365.6366272,103.5491333"/>
				<path id="XMLID_30_" class="st2" d="M305.4264526,87.5239944c-2.5801086-3.7952957-4.9796448-8.2913284-7.0256348-13.2495728
					c-0.4169617-0.1898041-0.8144531-0.3932648-1.2413635-0.5793839
					c-17.6488342-7.6947937-34.6286926-7.8015747-37.9266357-0.2374191
					c-3.2970123,7.562088,8.3357544,19.9330215,25.9843445,27.6276932c0.4268799,0.1861191,0.8473816,0.3368378,1.2702026,0.5131912
					c5.0254517-1.8754501,9.9527283-3.1770401,14.4893188-3.8691864c-0.0230103,0.1148987-0.0220032,0.2375107-0.0426941,0.3534241
					c0.7071228-4.0080948,2.3814087-7.7981949,4.8828735-11.0187225
					C305.6938171,87.2220612,305.5452576,87.3637695,305.4264526,87.5239944"/>
				<path id="XMLID_31_" class="st2" d="M310.3642578,122.0889587c0.0940552,0.0708466,0.1754456,0.1580353,0.2697449,0.2289963
					c-3.7929688,2.5811234-8.2890015,4.9806519-13.2486877,7.0235672c-0.1907959,0.4193115-0.3942566,0.816803-0.5793762,1.2413635
					c-7.6946716,17.6485748-7.8014526,34.6284485-0.23703,37.9264984
					c7.5643921,3.2980347,19.9327393-8.3358765,27.6274109-25.9844513c0.1851196-0.4245605,0.3358459-0.845047,0.5132141-1.2702179
					c-1.8764648-5.0231323-3.1780701-9.9503784-3.8700867-14.4872513c0.1981201,0.0374603,0.4010925,0.0391769,0.5992126,0.0710831
					C317.4160461,126.1823578,313.6100464,124.5445023,310.3642578,122.0889587"/>
			</g>
		</g>
		<g id="XMLID_33_">
			<path id="XMLID_24_" class="st3" d="M362.3348694,117.6897812c8.8872375-20.3838577-0.4319763-44.1111145-20.8158264-52.9983597
				s-44.1111145,0.4319611-52.9983521,20.8158188s0.4319763,44.1111069,20.8158264,52.9983597
				C329.7203674,147.3928375,353.4476318,138.0736237,362.3348694,117.6897812"/>
			<path id="XMLID_25_" class="st4" d="M301.6747742,95.6343155c-2.0411072-0.8899155-2.9699402-3.2627335-2.0816956-5.3000793
				c6.2111511-14.2459106,22.8561707-20.7806931,37.0987549-14.571022c2.0410767,0.8899078,2.9699402,3.2627335,2.081665,5.3000793
				c-0.8882751,2.0373383-3.2589722,2.9715805-5.3000793,2.0816727c-10.175415-4.4364166-22.0627747,0.2324982-26.499176,10.4079056
				C306.0863953,95.5903931,303.7158813,96.5242233,301.6747742,95.6343155"/>
		</g>
	</g>
	<g id="XMLID_17_">
		<g id="XMLID_36_">
			<g id="XMLID_43_">
				<path id="XMLID_62_" class="st1" d="M1418.9683838,74.439682c-5.4737549,2.1498871-10.3916016,4.7569046-14.5095215,7.5603714
					c3.6394043,2.6868668,6.6052246,6.3758698,8.3828125,10.8967514c1.7766113,4.5232086,2.1138916,9.2448273,1.272583,13.6913681
					c4.9261475-0.7506409,10.3057861-2.186409,15.7774658-4.337204
					c17.9213867-7.0369263,30.0023193-18.9702835,26.986084-26.6499329
					C1453.8614502,67.9213867,1436.8876953,67.4018478,1418.9683838,74.439682"/>
				<path id="XMLID_46_" class="st1" d="M1398.7677002,125.1769791c-4.5231934,1.7765503-9.244751,2.1138535-13.6912842,1.272522
					c0.7506104,4.9261398,2.1864014,10.3057785,4.3371582,15.7774582
					c7.0369873,17.9213867,18.9703369,30.0023956,26.6499023,26.9861145
					c7.6796875-3.0162811,8.1994629-19.9899597,1.161377-37.9093781c-2.147583-5.4727249-4.7568359-10.3916397-7.5593262-14.5119019
					C1406.9799805,120.4345627,1403.2908936,123.4004288,1398.7677002,125.1769791"/>
				<path id="XMLID_45_" class="st1" d="M1366.4884033,111.1033554c-1.7766113-4.5232086-2.1138916-9.2448349-1.2758789-13.6900482
					c-4.9228516,0.7493286-10.3027344,2.1849823-15.7741699,4.3358841
					c-17.9190674,7.0379486-30.0024414,18.9702835-26.986084,26.6499329
					c3.0162354,7.6796417,19.9899902,8.1994476,37.9093018,1.1613617c5.4727783-2.1475601,10.3917236-4.7569046,14.5096436-7.560379
					C1371.2307129,119.3158264,1368.2647705,115.6268234,1366.4884033,111.1033554"/>
				<path id="XMLID_44_" class="st1" d="M1380.5622559,78.8234406c4.5231934-1.7765503,9.244751-2.1138535,13.6912842-1.272522
					c-0.7506104-4.9261475-2.1864014-10.3057785-4.3371582-15.7774506
					c-7.0369873-17.9213829-18.9703369-30.0024033-26.6499023-26.9861183
					c-7.6796875,3.0162849-8.1994629,19.9899521-1.161377,37.9093742c2.147583,5.4727249,4.7568359,10.3916397,7.5593262,14.5119095
					C1372.3498535,83.5661163,1376.0389404,80.5999908,1380.5622559,78.8234406"/>
			</g>
			<g id="XMLID_37_">
				<path id="XMLID_42_" class="st2" d="M1404.4581299,81.9988327c3.7952881-2.5801086,8.2913818-4.9796371,13.2486572-7.0235672
					c0.1911621-0.4191971,0.3942871-0.816803,0.5794678-1.2413712c7.6956787-17.650898,7.8013916-34.6284485,0.2369385-37.926487
					c-7.5620117-3.2970238-19.9329834,8.3357582-27.6265869,25.9820023
					c-0.1861572,0.4268951-0.3369141,0.8473854-0.5142822,1.2725563c1.8764648,5.0231171,3.1781006,9.9503784,3.8701172,14.4872437
					c-0.1960449-0.0365601-0.401123-0.0391769-0.5992432-0.0710831c4.024292,0.6572418,7.8304443,2.294838,11.0765381,4.7504883
					C1404.6361084,82.1579895,1404.5524902,82.0697937,1404.4581299,81.9988327"/>
				<path id="XMLID_41_" class="st2" d="M1429.8739014,103.2325439c-0.4245605-0.1851044-0.8474121-0.3368301-1.2702637-0.5131912
					c-5.0253906,1.8754501-9.9526367,3.1770401-14.4884033,3.8671188c0.0366211-0.1960754,0.0404053-0.39814,0.0723877-0.5958786
					c-0.6595459,4.0232849-2.2962646,7.8273239-4.751709,11.0731125c0.0731201-0.0930328,0.1602783-0.1744232,0.2290039-0.2697296
					c2.583374,3.7939911,4.9805908,8.2890015,7.0264893,13.2475128c0.4169922,0.1898041,0.815918,0.396347,1.2404785,0.5814514
					c17.6485596,7.6946716,34.628418,7.8014526,37.9265137,0.2370453
					C1459.1563721,123.2955704,1447.5224609,110.9272232,1429.8739014,103.2325439"/>
				<path id="XMLID_40_" class="st2" d="M1369.6636963,87.2074051c-2.5800781-3.7952957-4.9796143-8.2913284-7.0256348-13.2495728
					c-0.4169922-0.1898041-0.8144531-0.3932648-1.241333-0.5793839
					c-17.6488037-7.6947937-34.6286621-7.8015747-37.9266357-0.2374191
					c-3.2969971,7.562088,8.3358154,19.9330215,25.984375,27.6276932c0.4268799,0.1861191,0.84729,0.3368378,1.2701416,0.5131912
					c5.0255127-1.8754501,9.9527588-3.1770401,14.4893799-3.8691864c-0.0230713,0.1148987-0.0219727,0.2375107-0.0427246,0.3534241
					c0.7071533-4.0080948,2.3814697-7.7981949,4.8829346-11.0187225
					C1369.9310303,86.9054718,1369.7824707,87.0471802,1369.6636963,87.2074051"/>
				<path id="XMLID_38_" class="st2" d="M1374.6015625,121.7723694c0.0939941,0.0708466,0.175415,0.1580353,0.2696533,0.2289963
					c-3.7929688,2.5811234-8.2889404,4.9806519-13.2486572,7.0235672c-0.1907959,0.4193115-0.3942871,0.816803-0.5793457,1.2413635
					c-7.6947021,17.6485748-7.8015137,34.6284485-0.2370605,37.9264984
					c7.5644531,3.2980347,19.9327393-8.3358765,27.6274414-25.9844513c0.1850586-0.4245605,0.3358154-0.845047,0.5131836-1.2702179
					c-1.8764648-5.0231323-3.1779785-9.9503784-3.8701172-14.4872513c0.1982422,0.0374603,0.401123,0.0391769,0.5992432,0.0710831
					C1381.6533203,125.8657684,1377.84729,124.2279129,1374.6015625,121.7723694"/>
			</g>
		</g>
		<g id="XMLID_34_">
			<path id="XMLID_35_" class="st3" d="M1426.5721436,117.3731918c8.887207-20.3838577-0.4320068-44.1111145-20.8157959-52.9983597
				c-20.3839111-8.8872375-44.111084,0.4319611-52.9984131,20.8158188
				c-8.887207,20.3838501,0.4320068,44.1111069,20.8157959,52.9983597
				C1393.9576416,147.0762482,1417.6849365,137.7570343,1426.5721436,117.3731918"/>
			<path id="XMLID_47_" class="st4" d="M1365.9119873,95.3177261c-2.0410156-0.8899155-2.9698486-3.2627335-2.081665-5.3000793
				c6.2111816-14.2459106,22.8562012-20.7806931,37.0987549-14.571022c2.0411377,0.8899078,2.9699707,3.2627335,2.081665,5.3000793
				c-0.8881836,2.0373383-3.2589111,2.9715805-5.3000488,2.0816727
				c-10.175415-4.4364166-22.0627441,0.2324982-26.4991455,10.4079056
				C1370.3237305,95.2738037,1367.953125,96.207634,1365.9119873,95.3177261"/>
		</g>
	</g>
</g>
</svg>
